<svg id="レイヤー_1" data-name="レイヤー 1" xmlns="http://www.w3.org/2000/svg" viewBox="0 0 2700 2000"><defs><style>.cls-1{fill:#036eb8;}.cls-2{fill:#4a97e8;}.cls-3,.cls-4,.cls-6,.cls-9{fill:none;}.cls-3{stroke:#152836;}.cls-10,.cls-3,.cls-4,.cls-6,.cls-7,.cls-8,.cls-9{stroke-linecap:round;stroke-linejoin:round;}.cls-10,.cls-3,.cls-6,.cls-7,.cls-8,.cls-9{stroke-width:11.52px;}.cls-4{stroke:#8cbbd4;stroke-width:8.14px;}.cls-5{fill:#0367d1;}.cls-10,.cls-6,.cls-7,.cls-8{stroke:#000;}.cls-7{fill:#f8b62d;}.cls-8{fill:#c9caca;}.cls-9{stroke:#898989;}.cls-10{fill:#f39800;}</style></defs><rect class="cls-1" x="1779.3" y="623.91" width="282.25" height="146.55" transform="translate(69.49 1562.15) rotate(-45)"/><polygon class="cls-2" points="1911.67 602.31 1953.84 767.4 1992.37 728.87 1950.2 563.79 1911.67 602.31"/><polygon class="cls-2" points="1870.57 643.41 1912.74 808.5 1938.87 782.37 1896.7 617.28 1870.57 643.41"/><line class="cls-3" x1="2020.21" y1="597.4" x2="2047.08" y2="570.53"/><line class="cls-4" x1="1820.64" y1="796.98" x2="2020.21" y2="597.4"/><line class="cls-4" x1="1972.24" y1="749" x2="1868.61" y2="645.37"/><line class="cls-4" x1="2022.13" y1="699.11" x2="1918.51" y2="595.48"/><line class="cls-4" x1="1922.34" y1="798.89" x2="1818.72" y2="695.27"/><rect class="cls-3" x="1779.3" y="623.91" width="282.25" height="146.55" transform="translate(69.49 1562.15) rotate(-45)"/><rect class="cls-5" x="1779.3" y="623.91" width="282.25" height="146.55" transform="translate(69.49 1562.15) rotate(-45)"/><polygon class="cls-2" points="1911.67 602.31 1953.84 767.4 1992.37 728.87 1950.2 563.79 1911.67 602.31"/><polygon class="cls-2" points="1870.57 643.41 1912.74 808.5 1938.87 782.37 1896.7 617.28 1870.57 643.41"/><line class="cls-3" x1="2020.21" y1="597.4" x2="2047.08" y2="570.53"/><line class="cls-4" x1="1820.64" y1="796.98" x2="2020.21" y2="597.4"/><line class="cls-4" x1="1972.24" y1="749" x2="1868.61" y2="645.37"/><line class="cls-4" x1="2022.13" y1="699.11" x2="1918.51" y2="595.48"/><line class="cls-4" x1="1922.34" y1="798.89" x2="1818.72" y2="695.27"/><rect class="cls-6" x="1779.3" y="623.91" width="282.25" height="146.55" transform="translate(69.49 1562.15) rotate(-45)"/><rect class="cls-5" x="2123.95" y="279.27" width="282.25" height="146.55" transform="translate(4116 -999.82) rotate(135)"/><polygon class="cls-2" points="2258.07 255.92 2300.23 421 2338.76 382.48 2296.59 217.4 2258.07 255.92"/><polygon class="cls-2" points="2216.96 297.02 2259.13 462.11 2285.26 435.98 2243.09 270.89 2216.96 297.02"/><line class="cls-3" x1="2165.28" y1="452.33" x2="2138.42" y2="479.2"/><line class="cls-4" x1="2364.86" y1="252.75" x2="2165.28" y2="452.33"/><line class="cls-4" x1="2316.88" y1="404.36" x2="2213.26" y2="300.73"/><line class="cls-4" x1="2266.99" y1="454.25" x2="2163.36" y2="350.62"/><line class="cls-4" x1="2366.78" y1="354.46" x2="2263.15" y2="250.83"/><rect class="cls-6" x="2123.95" y="279.27" width="282.25" height="146.55" transform="translate(4116 -999.82) rotate(135)"/><rect class="cls-7" x="2017.63" y="429.09" width="129.17" height="170.47" transform="translate(3918.25 -594.33) rotate(135)"/><rect class="cls-8" x="2096.96" y="570.24" width="112.13" height="29.8" transform="translate(4089.19 -523.53) rotate(135)"/><rect class="cls-8" x="1955.34" y="428.63" width="112.13" height="29.8" transform="translate(3747.31 -665.14) rotate(135)"/><path class="cls-9" d="M1892.23,422.33a98.14,98.14,0,0,1,96.86-98"/><path class="cls-9" d="M1923,421.49a66.53,66.53,0,0,1,66.38-66.38"/><path class="cls-9" d="M1952.94,422.33a37.43,37.43,0,0,1,36.83-37.27"/><rect class="cls-10" x="2028.22" y="494.49" width="129.17" height="60.87" transform="translate(241.79 1633.58) rotate(-45)"/></svg>